<?xml version="1.0" standalone="no"?>
<!DOCTYPE svg PUBLIC "-//W3C//DTD SVG 20010904//EN"
 "http://www.w3.org/TR/2001/REC-SVG-20010904/DTD/svg10.dtd">
<svg version="1.0" xmlns="http://www.w3.org/2000/svg"
 width="1600.000000pt" height="1600.000000pt" viewBox="0 0 1600.000000 1600.000000"
 preserveAspectRatio="xMidYMid meet">

<g transform="translate(0.000000,1600.000000) scale(0.100000,-0.100000)"
fill="#000000" stroke="none">
<path d="M7880 12035 c-619 -90 -1126 -164 -1128 -164 -2 -1 0 -5 3 -11 3 -5
0 -7 -8 -4 -8 3 -19 -1 -23 -8 -5 -7 -11 -219 -14 -471 l-5 -459 -33 -29 -32
-29 -679 0 c-653 0 -680 -1 -702 -19 l-24 -19 -5 -1257 -5 -1257 -28 -24 -28
-24 -675 0 c-719 0 -724 0 -738 -47 -2 -10 -6 -586 -8 -1280 l-3 -1263 28 -27
27 -28 1510 -3 1510 -2 0 515 0 515 -120 0 c-130 0 -204 12 -263 42 -104 52
-186 172 -194 283 -4 57 5 88 167 565 95 278 202 595 240 705 37 110 76 218
88 240 34 66 89 122 150 152 l57 28 330 5 329 5 -86 33 c-333 126 -548 441
-548 802 0 340 188 637 494 780 119 56 184 71 331 77 145 6 252 -13 369 -64
57 -25 191 -107 201 -123 3 -4 -11 -25 -31 -46 -110 -116 -194 -262 -235 -409
-33 -115 -33 -314 0 -435 37 -138 100 -252 206 -374 l65 -74 -48 -35 c-54 -40
-155 -92 -227 -118 -27 -10 -43 -18 -35 -19 8 0 -12 -11 -44 -25 -68 -28 -133
-87 -170 -155 -14 -26 -91 -238 -170 -471 -156 -459 -240 -705 -250 -729 -4
-9 12 -46 37 -88 193 -322 530 -512 910 -512 551 0 996 403 1058 959 6 52 8
120 4 151 -9 80 8 136 59 186 87 87 212 83 293 -9 48 -55 56 -100 50 -267 -10
-231 -53 -402 -151 -605 -99 -201 -262 -399 -438 -529 l-78 -57 0 -489 0 -490
378 0 377 0 -3 554 -2 554 152 4 c147 3 156 5 220 35 81 38 142 97 177 172 21
45 26 70 26 131 -1 68 -9 99 -87 325 -47 138 -154 450 -238 695 -83 245 -162
464 -176 488 -37 62 -90 111 -153 141 -56 26 -56 26 -376 31 -195 3 -308 8
-290 13 57 16 197 87 260 132 86 61 184 171 239 268 225 397 104 896 -277
1145 -74 48 -204 106 -268 119 l-29 6 0 888 c0 541 -4 898 -10 913 -8 23 -58
58 -77 55 -4 -1 -514 -75 -1133 -164z m1120 35 c20 -13 22 -147 13 -842 l-8
-556 -60 35 c-383 227 -936 404 -1435 458 -141 15 -538 19 -642 6 l-58 -7 0
313 c0 242 3 315 13 318 6 3 82 14 167 25 85 11 187 25 225 30 39 6 246 33
460 61 215 28 509 66 655 85 146 20 299 39 340 44 41 6 116 16 165 24 112 17
146 18 165 6z m-2387 -1312 c12 -10 17 -34 19 -110 l3 -97 -29 -5 c-16 -3 -53
-6 -82 -6 l-54 0 0 -124 c0 -131 -4 -156 -25 -156 -7 0 -16 -7 -19 -16 -3 -8
-10 -12 -16 -9 -5 3 -10 -3 -10 -14 0 -12 -7 -21 -15 -21 -8 0 -17 -11 -21
-25 -3 -13 -15 -27 -25 -30 -10 -4 -19 -11 -19 -16 0 -6 -4 -7 -10 -4 -5 3
-10 0 -10 -8 0 -16 -77 -27 -186 -27 l-64 0 0 180 c0 99 -1 180 -3 180 -2 0
-28 -7 -58 -16 -30 -9 -61 -17 -69 -19 -11 -1 -18 -23 -25 -74 -10 -74 -31
-108 -94 -151 -11 -8 -21 -18 -21 -23 0 -12 -22 -32 -43 -40 -10 -4 -16 -11
-13 -15 5 -9 -116 -22 -201 -22 l-43 0 0 55 c0 30 -4 55 -8 55 -4 0 -39 -20
-77 -45 l-70 -45 -3 316 c-2 225 1 321 9 330 16 20 1256 21 1282 2z m-840
-795 l127 -6 0 -61 c0 -95 -12 -195 -23 -193 -5 1 -17 -12 -26 -29 -9 -17 -25
-35 -36 -40 -11 -5 -29 -23 -40 -41 -11 -18 -27 -32 -37 -33 -9 0 -18 -6 -20
-12 -3 -9 -40 -14 -121 -16 l-117 -4 0 221 0 221 83 0 c45 0 139 -3 210 -7z
m2742 -1788 c135 -35 268 -120 344 -219 88 -116 131 -240 131 -386 0 -172 -58
-310 -184 -436 -92 -92 -186 -144 -303 -169 -318 -68 -634 123 -729 440 -29
96 -25 259 9 358 70 202 231 355 428 407 91 23 223 26 304 5z m-4097 -305 c4
-85 -8 -217 -18 -200 -6 9 -31 -10 -88 -69 l-80 -81 -115 0 -114 0 -7 61 c-3
34 -6 129 -6 211 l0 148 213 -2 212 -3 3 -65z m571 -12 c-1 -101 -11 -178 -23
-181 -17 -4 -91 -78 -88 -88 1 -6 -2 -8 -7 -5 -5 3 -21 -10 -35 -29 l-27 -35
-120 0 -119 0 0 210 0 210 210 0 210 0 -1 -82z"/>
<path d="M5543 10533 c15 -2 37 -2 50 0 12 2 0 4 -28 4 -27 0 -38 -2 -22 -4z"/>
<path d="M5643 10533 c9 -2 23 -2 30 0 6 3 -1 5 -18 5 -16 0 -22 -2 -12 -5z"/>
<path d="M6108 10533 c12 -2 30 -2 40 0 9 3 -1 5 -23 4 -22 0 -30 -2 -17 -4z"/>
<path d="M6228 10533 c12 -2 30 -2 40 0 9 3 -1 5 -23 4 -22 0 -30 -2 -17 -4z"/>
<path d="M7180 6866 c0 -2 8 -10 18 -17 15 -13 16 -12 3 4 -13 16 -21 21 -21
13z"/>
<path d="M6673 6753 c9 -2 25 -2 35 0 9 3 1 5 -18 5 -19 0 -27 -2 -17 -5z"/>
<path d="M7283 6744 c9 -11 15 -24 12 -27 -3 -4 -2 -5 2 -2 10 7 63 -46 57
-57 -3 -5 -2 -7 3 -6 5 2 26 -12 48 -29 41 -34 38 -45 -5 -16 -23 15 -24 16
-12 0 8 -9 22 -19 33 -22 27 -9 24 -22 -6 -22 -13 0 -23 2 -21 6 3 4 -4 7 -14
7 -10 0 -16 -4 -14 -8 3 -4 -84 -8 -193 -8 l-199 0 -12 28 -12 27 4 -27 c2
-15 -1 -33 -5 -40 -6 -8 -9 6 -11 37 -4 125 -15 -299 -17 -657 l-1 -398 325 0
325 0 0 489 0 488 -72 54 c-40 30 -109 88 -153 129 -44 41 -72 66 -62 54z
m203 -185 c19 -22 19 -22 -6 -15 -23 7 -24 6 -7 -8 11 -8 26 -12 35 -10 13 4
12 3 -2 -6 -15 -10 -22 -8 -40 10 -15 16 -17 24 -8 27 6 3 10 9 6 14 -10 16 3
9 22 -12z m62 -61 c8 -10 3 -13 -21 -14 -18 -1 -24 1 -14 3 9 2 17 9 17 14 0
12 6 11 18 -3z"/>
<path d="M7226 6738 c3 -5 10 -6 15 -3 13 9 11 12 -6 12 -8 0 -12 -4 -9 -9z"/>
<path d="M7315 6681 l20 -24 -20 7 c-16 6 -18 5 -7 -5 8 -9 15 -10 22 -3 7 7
3 17 -12 30 l-23 19 20 -24z"/>
<path d="M5710 3935 c0 -135 -2 -245 -3 -245 -2 0 -23 18 -47 40 -63 59 -135
83 -245 83 -134 0 -217 -39 -294 -140 -58 -75 -84 -154 -89 -273 -5 -122 7
-191 47 -277 73 -154 202 -231 370 -221 114 7 212 60 263 143 l18 30 0 -77 0
-78 140 0 140 0 0 630 0 630 -150 0 -150 0 0 -245z m-110 -370 c119 -60 146
-274 48 -374 -133 -136 -308 -34 -308 179 0 66 38 152 81 183 50 36 122 40
179 12z"/>
<path d="M7720 3908 c0 -271 0 -273 -19 -243 -28 45 -71 81 -126 107 -70 32
-198 32 -270 0 -138 -63 -205 -200 -205 -422 0 -210 68 -353 198 -417 51 -25
68 -28 157 -28 84 0 107 4 140 22 41 22 94 72 113 108 9 16 11 7 12 -47 l0
-68 55 0 55 0 0 630 0 630 -55 0 -55 0 0 -272z m-185 -209 c57 -16 127 -89
155 -164 28 -75 38 -228 20 -306 -36 -154 -124 -239 -246 -239 -145 0 -232
107 -250 309 -13 139 39 313 108 362 64 46 137 59 213 38z"/>
<path d="M12490 3550 l0 -630 150 0 150 0 0 630 0 630 -150 0 -150 0 0 -630z"/>
<path d="M12890 4050 l0 -110 155 0 155 0 0 110 0 110 -155 0 -155 0 0 -110z"/>
<path d="M4500 4146 c0 -2 -25 -56 -55 -120 l-54 -116 107 0 108 0 102 115
c56 63 102 117 102 120 0 3 -70 5 -155 5 -85 0 -155 -2 -155 -4z"/>
<path d="M12151 4103 c-13 -27 -39 -81 -57 -120 l-33 -73 107 0 107 0 95 107
c52 58 99 112 103 119 7 12 -19 14 -146 14 l-153 0 -23 -47z"/>
<path d="M2532 4110 c-86 -12 -168 -37 -225 -68 -63 -34 -131 -110 -151 -169
-23 -66 -21 -180 4 -245 39 -103 114 -158 299 -219 199 -65 231 -88 231 -162
0 -90 -42 -112 -205 -111 -108 0 -130 4 -214 33 -52 17 -95 30 -96 29 -7 -10
-23 -244 -17 -250 4 -4 43 -15 87 -25 59 -13 125 -18 250 -18 159 0 175 2 256
28 104 34 173 84 216 156 64 107 67 271 6 370 -55 88 -131 129 -357 196 -97
29 -156 72 -156 114 0 42 28 79 74 96 62 24 255 17 338 -12 69 -24 64 -31 73
118 l7 106 -78 16 c-97 21 -258 29 -342 17z"/>
<path d="M8680 3510 l0 -590 155 0 155 0 0 235 0 235 228 2 227 3 0 110 0 110
-227 3 -228 2 0 125 0 125 238 2 237 3 0 110 0 110 -392 3 -393 2 0 -590z"/>
<path d="M3445 3814 c-79 -11 -154 -26 -197 -40 l-48 -16 0 -103 0 -103 58 23
c70 29 207 48 270 39 92 -13 152 -63 152 -126 l0 -23 -158 0 c-138 0 -165 -3
-224 -23 -141 -49 -199 -121 -206 -256 -4 -74 -1 -86 25 -136 53 -102 169
-156 317 -148 101 5 162 33 220 101 l41 47 5 -62 5 -63 136 -3 135 -3 -3 143
c-10 468 -11 483 -27 528 -53 144 -175 217 -375 225 -53 2 -109 1 -126 -1z
m235 -531 c-1 -43 -33 -105 -73 -140 -64 -56 -161 -57 -209 -3 -34 37 -36 77
-6 115 33 43 72 54 186 55 l102 0 0 -27z"/>
<path d="M6465 3809 c-176 -29 -305 -139 -349 -299 -64 -235 20 -452 214 -550
140 -71 353 -80 543 -25 l57 16 0 106 c0 96 -2 105 -17 100 -10 -4 -45 -16
-78 -28 -129 -46 -302 -34 -376 28 -29 25 -59 77 -59 103 0 7 102 10 307 10
l306 0 -6 93 c-18 259 -137 412 -348 446 -73 12 -122 12 -194 0z m195 -208
c41 -29 70 -80 70 -122 l0 -39 -165 0 c-184 0 -176 -4 -154 71 15 47 66 99
111 109 45 11 108 2 138 -19z"/>
<path d="M9797 3809 c-38 -4 -100 -17 -138 -29 l-69 -21 0 -103 0 -104 58 23
c31 13 94 29 139 35 159 21 265 -21 279 -111 l6 -34 -123 3 c-150 4 -234 -9
-316 -49 -107 -51 -153 -126 -153 -244 0 -86 18 -134 71 -187 64 -64 154 -92
273 -86 69 4 92 9 137 35 30 16 68 48 84 71 17 22 33 41 38 41 4 1 7 -28 7
-64 l0 -65 141 0 141 0 -7 23 c-4 12 -9 153 -12 312 -6 333 -12 363 -90 446
-92 98 -245 134 -466 108z m273 -518 c0 -10 -5 -33 -11 -52 -37 -109 -146
-166 -244 -125 -39 17 -55 42 -55 88 1 76 61 107 208 108 93 0 102 -2 102 -19z"/>
<path d="M10940 3810 c-92 -17 -178 -73 -222 -145 l-18 -30 0 83 0 82 -140 0
-140 0 0 -440 0 -441 151 3 150 3 0 185 c1 102 5 216 10 255 17 132 73 198
166 197 55 -2 98 -36 113 -91 5 -20 10 -152 10 -293 l0 -258 149 0 149 0 4
243 c3 237 4 243 30 299 32 69 73 98 138 98 52 0 83 -18 108 -63 15 -28 17
-68 20 -304 l3 -273 150 0 150 0 -3 338 c-3 291 -6 343 -21 382 -31 79 -62
116 -123 146 -51 25 -69 28 -158 29 -95 0 -106 -2 -167 -32 -39 -19 -84 -52
-109 -79 -38 -41 -44 -45 -53 -29 -24 43 -81 94 -127 114 -57 25 -153 34 -220
21z"/>
<path d="M13605 3809 c-38 -5 -100 -18 -137 -29 l-68 -21 0 -103 0 -104 58 24
c118 47 288 51 363 7 30 -18 59 -67 59 -100 0 -17 -11 -18 -158 -18 -138 0
-165 -3 -225 -24 -91 -31 -146 -74 -180 -141 -25 -49 -28 -63 -25 -136 3 -69
7 -88 33 -129 58 -94 169 -141 312 -133 96 6 150 31 216 101 l47 51 0 -67 0
-67 141 0 141 0 -7 38 c-4 20 -10 168 -14 327 -6 274 -7 293 -29 336 -76 156
-259 221 -527 188z m275 -526 c-1 -63 -62 -149 -123 -172 -121 -46 -236 54
-165 144 33 43 72 54 186 55 l102 0 0 -27z"/>
<path d="M4037 3793 c-11 -10 -8 -530 3 -607 19 -127 70 -205 168 -253 52 -26
67 -28 167 -28 100 0 115 3 167 28 52 25 138 106 138 128 0 5 3 9 8 9 4 0 6
-34 4 -75 l-4 -75 141 0 141 0 0 440 0 440 -149 0 -149 0 -4 -242 c-5 -257 -9
-284 -56 -347 -52 -70 -170 -82 -223 -23 -44 49 -49 88 -49 360 l0 252 -148 0
c-82 0 -152 -3 -155 -7z"/>
<path d="M8135 3786 c-33 -8 -78 -21 -100 -29 -39 -14 -40 -15 -43 -66 -2 -29
1 -51 5 -49 108 53 196 74 279 65 112 -11 164 -75 164 -199 l0 -68 -92 0
c-303 -1 -454 -102 -452 -300 1 -141 90 -227 244 -237 125 -9 241 39 290 120
l20 32 0 -67 0 -68 53 0 52 0 -2 107 c-2 60 -4 212 -6 338 -4 245 -9 279 -59
345 -12 17 -46 42 -75 56 -66 32 -187 41 -278 20z m305 -516 c0 -183 -87 -280
-254 -280 -110 0 -176 58 -176 153 0 133 117 204 343 206 l87 1 0 -80z"/>
<path d="M12020 3360 l0 -440 150 0 150 0 0 440 0 440 -150 0 -150 0 0 -440z"/>
<path d="M12897 3794 c-4 -4 -7 -202 -7 -441 l0 -433 155 0 155 0 -2 438 -3
437 -146 3 c-80 1 -148 -1 -152 -4z"/>
</g>
</svg>
